<?xml version="1.0" encoding="UTF-8"?>
<svg data-bbox="0.004 0 24985.885 9605.909" viewBox="0 0 24985.91 9605.91" height="363.265" width="944.889" xmlns="http://www.w3.org/2000/svg" shape-rendering="geometricPrecision" text-rendering="geometricPrecision" image-rendering="optimizeQuality" fill-rule="evenodd" clip-rule="evenodd" data-type="color">
    <g>
        <path d="M4901.67 9146.49c6.78 0 12.64 2.49 17.39 7.68 4.97 4.98 7.46 9.49 7.46 13.55 0 15.36-17.85 40.21-53.31 73.86-35.46 33.88-81.99 62.79-139.36 86.96-57.37 24.18-117.9 36.14-181.83 36.14-103.22 0-192.89-22.59-269.01-67.53-76.13-44.94-134.62-107.51-175.05-187.92-40.66-80.18-60.99-163.76-60.99-250.04 0-86.51 19.88-167.59 59.63-243.26 39.76-75.67 96.23-134.62 169.4-177.08 73.18-42.24 158.11-63.47 254.78-63.47 61.65 0 118.8 8.14 170.98 24.17 52.4 16.04 93.51 35.69 123.77 58.51 30.27 23.04 45.4 40.43 45.4 52.4 0 18.52-.45 35.23-1.36 50.37-.9 14.9-1.35 23.94-1.35 27.1 0 5.19 1.58 13.32 4.74 24.17 3.17 10.84 4.75 20.78 4.75 30.04 0 14.68-9.03 21.91-27.1 21.91-5.65 0-11.29-2.71-16.94-7.91-5.88-5.43-14-20.33-25.08-44.72-23.49-51.95-48.78-89.67-75.67-113.17-47.42-41.33-113.61-61.88-198.54-61.88-109.32 0-194.25 39.76-255.23 119.03-60.76 79.5-91.25 182.06-91.25 307.63 0 136.88 32.98 244.84 98.7 324.35 65.73 79.27 154.49 119.03 266.3 119.03 28.69 0 73.87-9.71 135.52-29.14 61.66-19.42 122.42-56.92 182.51-112.71 13.32-11.97 23.72-18.07 30.72-18.07zm336.78-276.46c73.41 0 137.1 25.07 191.76 75.44 54.44 50.14 81.77 108.19 81.77 173.92 0 73.64-25.98 133.48-78.16 179.79-52.18 46.3-121.74 69.57-209.15 69.57-68.9 0-131.02-23.49-185.9-70.7-54.89-47.2-82.44-105.93-82.44-175.95 0-67.08 24.17-125.81 72.51-176.4 48.33-50.37 118.12-75.67 209.61-75.67zm.45 440.44c50.82 0 91.48-18.29 121.97-54.88 30.27-36.6 45.4-82.89 45.4-138.91 0-55.12-16.26-100.29-48.79-135.52-32.52-35.24-73.86-52.85-124-52.85-51.27 0-91.04 17.39-119.49 51.94-28.23 34.56-42.47 79.28-42.47 133.94 0 60.31 15.81 108.19 47.2 143.43 31.4 35.24 71.39 52.85 120.17 52.85zm710.81-308.98c0-9.71-4.3-18.07-12.88-24.85-8.58-7.01-17.84-10.39-27.77-10.39-21.91 0-47.88 12.42-77.71 37.05-17.39 15.13-30.03 22.59-37.94 22.59-11.52 0-17.17-4.98-17.17-14.91 0-22.59 20.56-48.79 61.88-78.61 41.12-29.81 78.39-44.71 111.36-44.71 28.23 0 53.08 10.16 74.09 30.26 21.23 20.33 31.84 44.04 31.84 71.6l-1.35 269.01c0 13.78 4.74 25.08 14 34.34 9.26 9.03 20.33 13.55 33.43 13.55 22.59 0 33.88 8.8 33.88 26.64 0 15.59-11.74 23.5-35.24 23.5-2.71 0-15.81-1.58-39.75-4.75-23.72-3.16-43.6-4.74-59.41-4.74-26.65 0-49.24 1.8-67.31 5.42-18.29 3.62-30.04 5.42-35.23 5.42-8.14 0-15.14-2.48-21.01-7.68-6.1-5.2-9.03-11.74-9.03-19.65 0-12.42 7.68-18.75 23.04-18.75 14.23 0 27.33-4.52 39.76-13.55 12.41-9.26 18.52-22.82 18.52-40.89v-255.9zm303.57 0c0-9.71-4.3-18.07-12.87-24.85-8.59-7.01-17.85-10.39-28.01-10.39-17.61 0-39.3 9.94-65.04 29.81-25.76 19.88-42.7 29.82-51.05 29.82-5.42 0-10.16-1.59-14.23-4.98-4.29-3.16-6.33-7-6.33-11.29 0-19.87 19.43-44.94 58.28-75.21 38.85-30.27 78.16-45.4 118.35-45.4 46.76 0 78.84 19.65 96 59.18 6.11 11.74 9.26 77.25 9.26 196.29l-1.36 112.93c0 14.01 3.85 24.63 11.29 31.85 7.46 7.01 18.98 12.19 34.34 15.13 15.35 3.17 24.62 7.01 28 11.29 3.39 4.3 4.97 9.48 4.97 15.36 0 16.94-10.84 25.53-32.52 25.53-2.94 0-16.26-1.58-39.76-4.75-23.27-3.16-43.14-4.74-59.41-4.74-16.48 0-34.1 1.8-53.53 5.42-19.2 3.62-35.01 5.42-47.88 5.42-7.91 0-14.9-2.71-20.78-7.91-6.1-5.19-9.03-11.74-9.03-19.87 0-14.01 10.16-21.92 30.72-23.95 20.55-2.03 34.1-7.46 40.65-16.26 6.56-8.81 9.94-19.88 9.94-33.2v-255.23zm-604.42 1.58c0-15.81-4.75-28.23-14.23-37.04-9.48-8.81-18.52-13.33-27.33-13.33-26.42 0-39.75-8.36-39.75-25.07 0-19.43 9.48-29.14 28.68-29.14 5.2 0 15.58 1.59 30.94 4.75 15.13 3.16 26.88 4.75 34.79 4.75 10.61 0 21.68-1.36 32.97-4.07s18.97-4.07 23.04-4.07c11.97 0 19.88 2.94 23.95 9.03 3.84 5.88 6.78 30.26 8.59 72.73 1.8 42.69 2.71 92.16 2.71 148.63l-1.36 115.64c0 20.55 1.13 33.2 3.62 38.4 2.48 4.97 7.68 9.93 15.81 14.9 8.13 4.75 17.84 7.91 28.91 9.26 10.83 1.36 18.97 3.39 23.94 6.33 5.2 2.94 7.69 9.03 7.69 18.29 0 15.59-11.29 23.5-33.88 23.5-16.27 0-32.98-1.81-49.69-5.43-16.94-3.61-33.43-5.42-49.92-5.42-13.32 0-29.59 1.81-48.78 5.42-19.2 3.62-33.66 5.43-43.38 5.43-24.85 0-37.27-7.23-37.27-21.46 0-10.61 2.26-17.62 7.01-21.01 4.52-3.39 13.1-5.65 25.3-7.23 12.42-1.58 22.37-5.2 30.04-10.61 7.91-5.65 12.65-12.88 14.68-21.69 2.03-8.8 2.94-26.87 2.94-54.44v-217.06zm934.89 448.12c2.71-25.07 4.06-94.64 4.06-208.7 0-54.89-1.35-135.29-4.06-241-.69-10.84-5.44-20.56-13.56-28.68-8.14-8.14-25.31-14.46-51.28-18.75-19.87-3.17-32.75-7.01-38.62-11.29-6.1-4.52-9.03-10.16-9.03-16.71 0-17.4 13.77-26.21 41.34-26.21 5.19 0 18.29 2.03 39.07 6.1 21.01 4.07 34.12 6.1 39.32 6.1 5.87 0 17.84-2.48 35.91-7.45 18.3-4.98 29.59-7.46 33.88-7.46 11.97 0 19.65 2.71 22.59 7.91 3.16 5.42 4.75 13.55 4.75 24.62v233.55c0 47.66 14.9 85.38 44.94 113.39 30.04 28.01 65.27 42.02 105.48 42.02 19.43 0 44.04-8.36 74.31-25.3 30.27-16.94 53.99-41.57 70.93-73.64 16.94-32.07 25.53-68.43 25.53-108.87 0-47.88-14.68-90.35-44.04-127.84-29.36-37.27-63.47-56.02-102.55-56.02-23.26 0-44.94 4.29-64.59 12.87-19.65 8.59-32.53 12.87-38.63 12.87-6.33 0-11.74-2.03-16.71-5.87-4.75-4.07-7.23-8.81-7.23-14.46 0-13.09 16.26-26.64 48.56-40.43 32.29-13.78 60.08-20.56 83.57-20.56 71.14 0 131 22.82 179.11 68.22 48.11 45.62 72.28 107.51 72.28 185.88 0 60.54-24.85 116.09-74.54 166.91-49.69 50.82-109.55 76.35-179.57 76.35-26.87 0-52.17-3.61-76.12-10.61-23.94-7.01-55.34-23.27-94.19-49.01-3.39 0-5.2 11.29-5.2 33.88 0 55.79-3.84 98.25-11.29 127.62-7.68 29.13-20.33 54.43-38.62 75.89-18.3 21.69-36.14 36.82-53.53 45.85-17.63 9.03-34.57 13.55-51.06 13.55-24.4 0-36.59-5.88-36.59-17.62 0-4.97 5.42-10.38 16.49-16.26 26.64-14.45 44.71-33.43 54.43-56.47 9.71-23.04 14.47-44.49 14.47-64.37zm778.12-194.25c0 11.74 3.17 21.91 9.26 30.27 6.33 8.58 19.88 14.45 41.11 18.07 21.23 3.39 34.33 7.91 38.85 13.32 4.75 5.42 7.01 12.19 7.01 20.33 0 14.45-10.84 21.69-32.53 21.69-13.32 0-33.2-1.81-59.4-5.43-26.21-3.61-45.85-5.42-59.19-5.42-12.42 0-30.71 1.81-54.66 5.42-23.94 3.62-42.01 5.43-54.43 5.43-17.85 0-29.36-2.04-34.33-6.11-5.2-4.06-7.69-9.7-7.69-16.94 0-7.23 2.04-13.32 6.33-18.29 4.29-4.97 17.39-9.03 39.76-12.42 22.36-3.39 37.04-10.61 43.81-21.91 7.01-11.07 10.39-24.18 10.39-39.31v-713.52c0-15.35-3.62-28.9-10.62-40.66-7-11.74-21.68-20.1-43.81-25.52-22.14-5.2-35.24-10.62-39.53-16.04-4.29-5.42-6.33-11.52-6.33-18.3 0-6.78 3.62-12.19 11.07-16.26 7.23-4.07 14.9-6.1 23.04-6.1 7 0 17.62 1.36 31.62 4.07s24.17 4.07 30.94 4.07c7.46 0 18.97-1.36 33.88-4.07 15.13-2.71 26.65-4.07 34.1-4.07 14.23 0 24.63 3.84 31.4 11.29 6.55 7.46 9.93 21.01 9.93 40.43v795.97zm575.97-168.72c10.16 0 16.94-1.81 20.55-5.2 3.39-3.39 5.2-9.7 5.2-18.97 0-33.2-13.1-64.6-39.53-93.51-26.2-29.14-65.72-43.6-118.8-43.6-36.82 0-74.54 17.39-113.62 51.95-39.08 34.78-58.73 84.02-58.73 147.72 0 46.53 20.55 88.32 61.66 125.59 41.11 37.04 87.41 55.56 138.45 55.56 38.63 0 80.41-12.19 125.36-36.36 17.17-9.26 28.46-13.78 33.66-13.78 7.91 0 14.23 2.26 18.75 6.78 4.75 4.29 7.01 9.93 7.01 16.49 0 16.03-24.41 35.69-73.19 58.73-48.79 23.04-98.93 34.56-150.65 34.56-76.35 0-140.5-25.98-192.67-78.16-52.18-51.95-78.16-113.84-78.16-185.89 0-65.72 28.69-121.97 85.83-168.72 57.15-46.75 121.29-70.02 192.22-70.02 92.38 0 161.5 23.5 207.35 70.7 45.85 47.2 68.89 103.67 68.89 169.17 0 14.23-3.61 22.82-10.61 26.21-7 3.39-19.88 4.97-38.85 4.97h-302.68c-24.62 0-36.82-9.25-36.82-27.78 0-17.61 12.88-26.42 38.4-26.42h210.97zm380.82 113.85c0 37.04 1.81 60.76 5.2 71.14 3.39 10.39 9.71 15.59 18.75 15.59 14 0 31.62-7.91 52.17-23.72 20.56-15.81 34.56-23.72 42.02-23.72 6.1 0 11.29 2.71 15.81 7.91 4.75 5.42 7.01 11.97 7.01 19.42 0 12.42-17.4 32.75-51.95 60.77-34.56 28-65.05 42.01-91.48 42.01-69.8 0-104.58-51.04-104.58-152.91v-254.1c0-8.36-1.13-12.87-3.39-13.55-2.03-.67-14.45-.9-37.04-.9-17.62 0-29.59-2.71-35.69-7.91-6.1-5.2-9.26-12.64-9.26-22.59 0-8.59 2.26-14.68 7.01-18.29 4.52-3.62 13.55-7.24 27.1-11.07 13.32-3.61 23.72-8.13 30.94-13.1 7.23-5.19 17.39-15.81 30.49-31.84 12.87-16.04 22.14-38.85 27.55-67.76 5.65-29.14 8.36-71.15 8.36-125.81 0-25.98 7.23-39.08 21.69-39.08 16.26 0 26.42 3.62 30.49 10.84 4.07 7.46 6.1 19.65 6.1 36.82v220.89c0 8.81 5.65 13.33 17.17 13.33h93.96c18.98 0 28.46 8.36 28.46 25.07 0 19.43-13.55 29.13-40.89 29.13H8332c-6.33 0-9.94.91-11.29 2.94-1.36 2.04-2.04 7.01-2.04 14.91v235.59zm615.05-113.85c10.16 0 16.94-1.81 20.55-5.2 3.39-3.39 5.2-9.7 5.2-18.97 0-33.2-13.1-64.6-39.53-93.51-26.2-29.14-65.72-43.6-118.8-43.6-36.82 0-74.54 17.39-113.62 51.95-39.08 34.78-58.73 84.02-58.73 147.72 0 46.53 20.55 88.32 61.66 125.59 41.11 37.04 87.41 55.56 138.45 55.56 38.63 0 80.41-12.19 125.36-36.36 17.17-9.26 28.46-13.78 33.66-13.78 7.91 0 14.22 2.26 18.74 6.78 4.75 4.29 7.01 9.93 7.01 16.49 0 16.03-24.4 35.69-73.18 58.73-48.79 23.04-98.93 34.56-150.65 34.56-76.35 0-140.5-25.98-192.67-78.16-52.18-51.95-78.16-113.84-78.16-185.89 0-65.72 28.69-121.97 85.83-168.72 57.15-46.75 121.29-70.02 192.22-70.02 92.38 0 161.5 23.5 207.34 70.7 45.85 47.2 68.89 103.67 68.89 169.17 0 14.23-3.61 22.82-10.61 26.21-7 3.39-19.88 4.97-38.85 4.97h-302.67c-24.62 0-36.82-9.25-36.82-27.78 0-17.61 12.88-26.42 38.4-26.42h210.97zm760.96-696.58c66.18 0 140.72 18.98 223.39 57.15 82.66 38.17 149.74 95.32 200.8 171.21 51.27 75.89 76.8 164.43 76.8 265.4 0 137.55-42.47 250.71-127.17 339.48-84.7 88.77-194.7 133.03-329.77 133.03l-375.41-2.71c-10.16 0-18.74-2.71-25.75-7.91-7.01-5.2-10.61-12.19-10.61-21.23 0-7.69 2.48-14 7.23-18.98 4.97-4.97 18.3-8.58 39.98-11.06 21.69-2.49 35.46-7.01 41.34-13.78 6.1-7 9.03-15.35 9.03-25.52v-750.11c0-19.88-3.16-34.11-9.48-42.92-6.56-8.81-13.33-14.01-20.56-15.59-7.23-1.58-21.23-2.26-42.01-2.26-12.65 0-21.24-2.26-25.76-6.55-4.29-4.3-6.55-10.84-6.55-19.88 0-18.52 14.45-27.78 43.6-27.78h330.9zm-159.01 828.72c0 25.53 11.74 45.17 35.24 58.73 23.49 13.78 66.85 20.56 129.88 20.56 68.21 0 119.93-8.81 154.94-26.43 59.41-30.26 107.74-78.38 144.78-144.55 37.05-65.96 55.57-132.81 55.57-200.35 0-58.51-4.97-113.62-14.91-165.35-9.93-51.72-28-98.24-53.98-139.81-25.98-41.56-65.05-80.86-117.45-117.9-52.4-36.82-121.97-55.34-208.93-55.34-83.34 0-125.13 18.07-125.13 54.21v716.23zm1108.57-132.13c10.16 0 16.94-1.81 20.55-5.2 3.39-3.39 5.2-9.7 5.2-18.97 0-33.2-13.1-64.6-39.53-93.51-26.2-29.14-65.72-43.6-118.8-43.6-36.82 0-74.54 17.39-113.62 51.95-39.08 34.78-58.73 84.02-58.73 147.72 0 46.53 20.55 88.32 61.66 125.59 41.11 37.04 87.41 55.56 138.45 55.56 38.63 0 80.41-12.19 125.36-36.36 17.17-9.26 28.46-13.78 33.66-13.78 7.91 0 14.22 2.26 18.74 6.78 4.75 4.29 7.01 9.93 7.01 16.49 0 16.03-24.4 35.69-73.18 58.73-48.79 23.04-98.93 34.56-150.65 34.56-76.35 0-140.5-25.98-192.67-78.16-52.18-51.95-78.16-113.84-78.16-185.89 0-65.72 28.69-121.97 85.83-168.72 57.15-46.75 121.29-70.02 192.22-70.02 92.38 0 161.5 23.5 207.34 70.7 45.85 47.2 68.89 103.67 68.89 169.17 0 14.23-3.61 22.82-10.61 26.21-7 3.39-19.88 4.97-38.85 4.97h-302.67c-24.62 0-36.82-9.25-36.82-27.78 0-17.61 12.88-26.42 38.4-26.42h210.97zm683.04 168.72c0 18.98 3.16 31.4 9.71 37.5 6.32 5.87 17.84 10.61 34.55 14.45 16.49 3.84 24.85 10.84 24.85 21.24 0 14-8.13 21-24.62 21-3.16 0-16.49-.9-39.98-2.71-23.5-1.81-43.15-2.71-59.18-2.71-26.65 0-49.02 1.81-67.08 5.42-18.3 3.62-30.04 5.43-35.47 5.43-7.91 0-15.35-2.71-22.13-8.14-7.01-5.2-10.39-11.74-10.39-19.2 0-5.87 2.94-11.29 8.59-16.49 5.65-5.19 12.42-7.68 19.88-7.68 14 0 26.64-4.07 37.72-12.19 11.06-8.37 16.48-20.56 16.48-36.82 0-106.61.68-172.56 2.04-198.09 1.35-25.3 2.03-39.53 2.03-42.7 0-34.55-15.81-51.72-46.97-51.72-13.55 0-32.75 10.39-57.83 31.17s-42.69 31.17-53.08 31.17c-3.62 0-7.46-2.26-11.74-6.78-4.3-4.52-6.56-9.26-6.56-14.23 0-15.81 20.11-39.53 60.54-71.15 40.44-31.62 79.96-47.43 118.58-47.43 22.82 0 42.47 5.88 59.18 17.62 16.72 11.74 27.78 26.42 33.43 44.04 5.42 17.61 8.14 42.69 8.14 74.99l-.68 42.24v191.76zm-405.21-253.88c0-16.49-3.17-28.68-9.48-37.04-6.56-8.14-19.88-14.01-39.99-17.4-20.33-3.61-30.5-12.87-30.5-27.77 0-6.33 3.62-12.65 10.63-18.75 7.23-6.1 16.48-9.03 28-9.03 4.75 0 13.32 1.58 25.53 4.75 12.19 3.16 22.36 4.74 30.26 4.74 4.97 0 16.04-1.35 33.65-4.07 17.62-2.71 28.46-4.06 32.98-4.06 8.8 0 15.13 3.61 18.52 11.06 3.62 7.23 5.65 21.91 6.1 44.04.91 36.82 1.36 76.12 1.36 117.67l-4.07 189.51c0 13.55 1.13 22.13 3.39 25.07 2.04 3.17 7.23 7.23 15.36 11.97 8.14 4.97 18.75 8.8 31.39 11.29 12.88 2.71 21.01 6.33 24.63 11.06 3.39 4.75 5.2 10.39 5.2 16.72 0 14.9-11.52 22.36-34.56 22.36-15.81 0-32.3-1.58-49.01-4.74-16.94-3.17-33.43-4.75-49.92-4.75-13.32 0-30.49 1.36-51.5 4.07-21 2.71-36.59 4.07-46.75 4.07-22.59 0-33.89-8.37-33.89-24.85 0-7.01 2.04-12.88 5.88-17.17 4.08-4.52 12.65-7.23 25.99-8.14 14.9-.9 24.17-3.16 27.78-6.55 9.93-10.61 16.48-20.1 18.97-28 2.71-7.91 4.07-24.4 4.07-49.02v-217.06zm738.82 199c0 37.04 1.81 60.76 5.2 71.14 3.39 10.39 9.71 15.59 18.75 15.59 14 0 31.62-7.91 52.17-23.72 20.56-15.81 34.56-23.72 42.02-23.72 6.1 0 11.29 2.71 15.81 7.91 4.75 5.42 7.01 11.97 7.01 19.42 0 12.42-17.4 32.75-51.95 60.77-34.56 28-65.05 42.01-91.48 42.01-69.8 0-104.58-51.04-104.58-152.91v-254.1c0-8.36-1.13-12.87-3.39-13.55-2.03-.67-14.45-.9-37.04-.9-17.62 0-29.59-2.71-35.69-7.91-6.1-5.2-9.26-12.64-9.26-22.59 0-8.59 2.26-14.68 7.01-18.29 4.52-3.62 13.55-7.24 27.1-11.07 13.32-3.61 23.72-8.13 30.94-13.1 7.23-5.19 17.39-15.81 30.49-31.84 12.87-16.04 22.14-38.85 27.55-67.76 5.65-29.14 8.36-71.15 8.36-125.81 0-25.98 7.23-39.08 21.69-39.08 16.26 0 26.42 3.62 30.49 10.84 4.07 7.46 6.1 19.65 6.1 36.82v220.89c0 8.81 5.65 13.33 17.17 13.33h93.96c18.98 0 28.46 8.36 28.46 25.07 0 19.43-13.55 29.13-40.89 29.13h-82.66c-6.33 0-9.94.91-11.29 2.94-1.36 2.04-2.04 7.01-2.04 14.91v235.59zm688.24 34.1c0 31.85 21.23 53.76 63.69 66.18 10.61 3.16 18.52 6.78 23.5 10.84 5.19 4.06 7.68 11.74 7.68 23.04 0 5.87-3.39 10.84-10.16 15.13-7.01 4.29-14.23 6.55-22.36 6.55-8.37 0-19.66-2.03-34.11-6.1-14.23-4.07-25.75-6.1-34.56-6.1-10.16 0-23.04 2.03-38.62 6.1-15.36 4.07-25.76 6.1-30.95 6.1-6.33 0-12.43-2.26-18.3-7-5.88-4.75-9.03-9.48-9.03-14.23 0-7.46-2.03-11.29-6.55-11.29-3.17 0-7.01 1.58-11.97 4.75-49.69 31.16-103.68 46.75-161.5 46.75-27.33 0-58.05-7.01-91.71-21.24-33.88-14-60.76-35.68-81.08-65.04-20.33-29.36-30.49-65.73-30.49-108.87 0-46.08 21.91-86.51 65.73-121.97 43.81-35.24 100.05-52.86 169.17-52.86 23.27 0 49.01 6.56 76.8 19.65 28 12.88 42.01 26.21 42.01 39.99 0 6.55-2.93 11.96-8.58 15.81-5.88 4.06-12.88 6.1-21.24 6.1-5.65 0-16.94-4.07-33.88-11.74-16.71-7.69-33.88-11.52-51.72-11.52-36.14 0-66.18 10.61-90.13 31.85-23.72 21.23-35.68 49.69-35.68 85.15 0 41.33 13.77 72.95 41.11 95.09 27.32 22.14 58.95 33.2 94.64 33.2 32.3 0 61.89-10.61 89.22-31.84 27.1-21.01 40.66-49.24 40.66-84.47v-179.35c0-26.87-8.8-48.78-26.65-65.5-17.84-16.71-41.56-25.07-71.37-25.07-38.18 0-75.22 11.97-111.13 36.14-12.42 8.36-20.79 12.64-25.08 12.64-10.61 0-19.43-2.71-26.87-8.36-7.46-5.42-11.29-12.65-11.29-21.46 0-21.46 19.65-39.75 59.18-54.89 39.53-14.9 82.44-22.36 129.2-22.36 57.83 0 104.35 14.45 139.6 43.6 35.23 29.13 52.85 63.91 52.85 104.12v222.48zm338.81 20.78c0 11.74 3.17 21.91 9.26 30.27 6.33 8.58 19.88 14.45 41.11 18.07 21.23 3.39 34.33 7.91 38.85 13.32 4.75 5.42 7.01 12.19 7.01 20.33 0 14.45-10.84 21.69-32.53 21.69-13.32 0-33.2-1.81-59.4-5.43-26.21-3.61-45.85-5.42-59.19-5.42-12.42 0-30.71 1.81-54.66 5.42-23.94 3.62-42.01 5.43-54.43 5.43-17.85 0-29.36-2.04-34.33-6.11-5.2-4.06-7.69-9.7-7.69-16.94 0-7.23 2.04-13.32 6.33-18.29 4.29-4.97 17.39-9.03 39.76-12.42 22.36-3.39 37.04-10.61 43.81-21.91 7.01-11.07 10.39-24.18 10.39-39.31v-713.52c0-15.35-3.62-28.9-10.62-40.66-7-11.74-21.68-20.1-43.81-25.52-22.14-5.2-35.24-10.62-39.53-16.04-4.29-5.42-6.33-11.52-6.33-18.3 0-6.78 3.62-12.19 11.07-16.26 7.23-4.07 14.9-6.1 23.04-6.1 7 0 17.62 1.36 31.62 4.07s24.17 4.07 30.94 4.07c7.46 0 18.97-1.36 33.88-4.07 15.13-2.71 26.65-4.07 34.1-4.07 14.23 0 24.63 3.84 31.4 11.29 6.55 7.46 9.93 21.01 9.93 40.43v795.97zm1231.68-110.45c6.78 0 12.64 2.49 17.39 7.68 4.97 4.98 7.46 9.49 7.46 13.55 0 15.36-17.85 40.21-53.31 73.86-35.46 33.88-81.99 62.79-139.36 86.96-57.37 24.18-117.91 36.14-181.84 36.14-103.22 0-192.89-22.59-269.01-67.53-76.13-44.94-134.62-107.51-175.05-187.92-40.66-80.18-60.99-163.76-60.99-250.04 0-86.51 19.88-167.59 59.63-243.26 39.76-75.67 96.23-134.62 169.4-177.08 73.18-42.24 158.11-63.47 254.78-63.47 61.65 0 118.8 8.14 170.99 24.17 52.4 16.04 93.51 35.69 123.77 58.51 30.27 23.04 45.4 40.43 45.4 52.4 0 18.52-.45 35.23-1.36 50.37-.9 14.9-1.35 23.94-1.35 27.1 0 5.19 1.58 13.32 4.74 24.17 3.17 10.84 4.75 20.78 4.75 30.04 0 14.68-9.03 21.91-27.1 21.91-5.65 0-11.29-2.71-16.94-7.91-5.88-5.43-14-20.33-25.08-44.72-23.49-51.95-48.78-89.67-75.67-113.17-47.42-41.33-113.62-61.88-198.55-61.88-109.32 0-194.25 39.76-255.23 119.03-60.76 79.5-91.25 182.06-91.25 307.63 0 136.88 32.98 244.84 98.7 324.35 65.73 79.27 154.49 119.03 266.3 119.03 28.69 0 73.87-9.71 135.53-29.14 61.66-19.42 122.42-56.92 182.51-112.71 13.32-11.97 23.72-18.07 30.72-18.07z" fill="#2b2a29" fill-rule="nonzero" data-color="1"/>
        <path d="M14460.77 9236.16c0 31.85 21.23 53.76 63.69 66.18 10.61 3.16 18.52 6.78 23.5 10.84 5.19 4.06 7.68 11.74 7.68 23.04 0 5.87-3.39 10.84-10.16 15.13-7.01 4.29-14.23 6.55-22.36 6.55-8.37 0-19.66-2.03-34.11-6.1-14.23-4.07-25.75-6.1-34.56-6.1-10.16 0-23.04 2.03-38.62 6.1-15.36 4.07-25.76 6.1-30.95 6.1-6.32 0-12.42-2.26-18.29-7-5.88-4.75-9.03-9.48-9.03-14.23 0-7.46-2.03-11.29-6.55-11.29-3.17 0-7.01 1.58-11.97 4.75-49.69 31.16-103.68 46.75-161.5 46.75-27.33 0-58.05-7.01-91.71-21.24-33.88-14-60.76-35.68-81.08-65.04-20.33-29.36-30.49-65.73-30.49-108.87 0-46.08 21.91-86.51 65.73-121.97 43.81-35.24 100.05-52.86 169.17-52.86 23.27 0 49.01 6.56 76.8 19.65 28 12.88 42.01 26.21 42.01 39.99 0 6.55-2.93 11.96-8.58 15.81-5.88 4.06-12.88 6.1-21.24 6.1-5.65 0-16.94-4.07-33.88-11.74-16.71-7.69-33.88-11.52-51.72-11.52-36.14 0-66.18 10.61-90.13 31.85-23.72 21.23-35.68 49.69-35.68 85.15 0 41.33 13.77 72.95 41.11 95.09 27.32 22.14 58.95 33.2 94.64 33.2 32.3 0 61.89-10.61 89.22-31.84 27.1-21.01 40.66-49.24 40.66-84.47v-179.35c0-26.87-8.8-48.78-26.65-65.5-17.84-16.71-41.56-25.07-71.37-25.07-38.18 0-75.22 11.97-111.13 36.14-12.42 8.36-20.79 12.64-25.08 12.64-10.61 0-19.43-2.71-26.87-8.36-7.46-5.42-11.29-12.65-11.29-21.46 0-21.46 19.65-39.75 59.18-54.89 39.53-14.9 82.44-22.36 129.2-22.36 57.83 0 104.35 14.45 139.59 43.6 35.23 29.13 52.85 63.91 52.85 104.12v222.48zm336.1-208.48 2.71 18.53c2.04 0 12.42-21.01 30.72-63.02 18.29-41.79 36.59-71.6 54.89-89.44 18.29-17.62 37.27-26.42 56.69-26.42 15.13 0 26.65 2.71 34.33 8.13 7.91 5.43 11.74 11.29 11.74 18.07 0 11.74-2.71 21.01-7.9 27.78-5.43 7.01-14.68 15.58-28.01 25.98-56.24 42.47-96.67 94.19-121.74 155.17-25.08 60.76-37.5 111.58-37.5 152.01 0 18.97 2.49 31.84 7.69 38.62 4.97 6.78 17.39 12.65 36.81 17.17 19.43 4.74 31.85 9.71 37.73 14.9 5.65 5.43 8.58 11.75 8.58 18.75 0 12.87-7.68 19.43-23.26 19.43-12.42 0-29.59-2.04-51.5-6.1-21.91-4.07-45.4-6.11-70.7-6.11-16.94 0-33.88 2.04-51.27 6.11-17.17 4.06-28.23 6.1-33.2 6.1-12.42 0-22.37-2.49-29.81-7.23-7.46-4.75-11.29-10.62-11.29-17.85 0-5.42 2.03-10.38 6.32-14.68 4.07-4.29 16.04-9.71 35.47-16.26 19.2-6.55 31.16-13.1 35.68-19.65 4.3-6.56 6.56-27.1 6.56-61.89v-200.57c0-12.65-2.94-24.17-9.03-34.11-5.88-10.16-17.85-17.84-35.69-23.49-17.84-5.43-28.23-10.16-31.62-14.23-3.39-4.07-4.97-8.59-4.97-13.55 0-14.9 10.38-22.36 31.17-22.36 5.87 0 15.58 1.13 29.13 3.39 13.32 2.26 22.82 3.39 28.23 3.39 4.29 0 11.51-.91 21.46-2.71 10.16-1.81 21.91-2.72 35.69-2.72 23.94 0 35.91 25.53 35.91 76.35v32.52zm639.67 60.54c10.16 0 16.94-1.81 20.55-5.2 3.39-3.39 5.2-9.7 5.2-18.97 0-33.2-13.1-64.6-39.53-93.51-26.2-29.14-65.72-43.6-118.8-43.6-36.82 0-74.54 17.39-113.62 51.95-39.08 34.78-58.73 84.02-58.73 147.72 0 46.53 20.55 88.32 61.66 125.59 41.11 37.04 87.41 55.56 138.45 55.56 38.63 0 80.41-12.19 125.36-36.36 17.17-9.26 28.46-13.78 33.66-13.78 7.91 0 14.22 2.26 18.74 6.78 4.75 4.29 7.01 9.93 7.01 16.49 0 16.03-24.4 35.69-73.18 58.73-48.79 23.04-98.93 34.56-150.65 34.56-76.35 0-140.5-25.98-192.68-78.16-52.18-51.95-78.16-113.84-78.16-185.89 0-65.72 28.69-121.97 85.83-168.72 57.16-46.75 121.3-70.02 192.23-70.02 92.38 0 161.5 23.5 207.34 70.7 45.85 47.2 68.89 103.67 68.89 169.17 0 14.23-3.61 22.82-10.61 26.21-7 3.39-19.88 4.97-38.85 4.97h-302.67c-24.62 0-36.82-9.25-36.82-27.78 0-17.61 12.88-26.42 38.4-26.42h210.97zm816.06-395.72c2.26 3.62 7.68 9.26 16.48 17.62 8.81 8.14 13.33 16.49 13.33 25.3 0 9.71-7.23 14.68-21.91 14.68-4.07 0-11.97-.68-23.95-1.81-11.97-1.13-21.68-1.58-29.13-1.58-43.15 0-92.16 22.59-147.27 67.99-55.12 45.39-82.67 115.64-82.67 210.73 0 76.13 26.65 144.11 79.73 203.73 53.3 59.64 115.41 89.45 186.79 89.45 71.37 0 138.91-24.17 202.15-72.28 63.46-48.11 95.1-106.38 95.1-175.05 0-51.27-14.91-92.16-44.73-122.19-29.58-30.04-61.21-45.17-94.41-45.17-26.21 0-48.56 8.36-66.63 25.3-18.3 16.71-27.33 38.85-27.33 66.4 0 18.3 9.03 34.33 27.33 47.88 9.71 7.24 14.68 13.33 14.68 18.3 0 6.33-3.39 11.97-9.94 17.17-6.55 5.19-12.87 7.91-19.42 7.91-15.81 0-30.04-9.03-43.15-26.88-13.1-17.84-19.65-40.21-19.65-67.08 0-32.07 7.68-63.01 23.27-92.16 15.36-29.36 43.14-59.4 83.34-90.12 40.21-30.72 85.61-52.85 136.42-66.4 50.83-13.78 117.46-20.56 199.91-20.56 74.99 0 135.97-8.14 182.51-24.17 46.53-16.04 69.79-41.56 69.79-76.35 0-3.84-2.26-9.93-6.55-18.07-4.52-8.13-6.78-14.68-6.78-19.65 0-15.36 9.48-23.04 28.23-23.04 10.61 0 19.43 6.33 26.21 18.75 7 12.64 10.38 26.2 10.38 40.66 0 27.32-11.06 55.11-33.43 83.11-22.36 28.01-53.08 52.63-92.61 73.86-39.53 21.46-83.79 35.69-132.58 42.7-48.78 7-116.09 10.61-202.15 10.61-49.02 0-79.73 2.49-92.39 7.68-12.64 4.98-18.75 9.03-18.75 12.2 0 2.94 3.85 4.52 11.75 4.52 39.3 0 76.34 20.78 111.14 62.11 34.55 41.56 51.95 93.51 51.95 155.62 0 54.21-17.62 103.9-52.86 148.63-35.47 44.71-83.12 80.18-142.98 106.61-60.09 26.2-119.04 39.3-176.86 39.3-114.74 0-209.38-34.56-283.92-103.45-74.54-68.88-111.81-154.49-111.81-256.58 0-79.5 31.85-150.65 95.77-213.22 63.69-62.56 137.78-97.35 221.58-104.35 7.91-.91 11.97-2.72 11.97-5.2 0-2.71-3.17-8.14-9.26-16.49l-177.31-248.23c-3.84-5.43-5.88-9.71-5.88-13.1 0-8.8 8.59-14.23 25.53-16.26 16.94-2.03 46.53-2.94 88.77-2.94h306.06c17.16 0 30.04 1.36 38.4 4.07 8.36 2.49 14.9 9.48 19.42 20.78 4.75 11.29 7.01 29.13 7.01 53.76 0 41.11-3.16 65.95-9.26 74.76-6.1 8.81-15.13 13.33-26.87 13.33-12.42 0-22.82-9.48-31.62-28.46-7.91-17.16-16.71-25.75-26.42-25.75h-183.86c-25.98 0-39.08 7.91-39.08 23.72 0 7.91 3.16 16.49 9.25 25.3l99.16 142.07zm1106.09-160.82c0-25.53-4.98-42.92-14.91-52.4-9.93-9.48-22.82-16.49-38.4-21.01-15.81-4.74-26.65-9.25-32.52-13.77-6.11-4.3-9.03-12.42-9.03-23.95 0-6.78 2.93-12.42 8.8-16.71 6.1-4.52 12.87-6.78 20.78-6.78 13.55 0 34.33 2.26 61.89 6.78 27.77 4.52 48.78 6.78 63.23 6.78 13.1 0 32.53-2.04 58.28-6.11 25.76-4.06 44.95-6.1 57.6-6.1 21.91 0 32.98 9.26 32.98 27.78 0 11.29-2.94 18.97-8.59 23.04s-17.39 7.69-34.78 11.07c-17.62 3.16-30.27 12.42-38.18 27.55-7.91 15.36-11.97 37.27-11.97 66.4v684.16c0 12.65 2.94 24.17 8.81 33.88 6.1 9.93 19.2 17.62 39.53 23.27 20.55 5.42 32.75 11.06 37.27 17.16 4.29 6.11 6.55 13.1 6.55 21.01 0 16.04-13.55 24.17-40.88 24.17-12.2 0-30.27-2.03-53.99-6.1-23.72-4.07-41.56-6.1-53.98-6.1-11.29 0-28.91 1.58-52.4 4.75-23.5 3.16-41.11 4.74-52.86 4.74-32.97 0-49.46-10.61-49.46-31.84 0-5.88 1.81-11.07 5.2-15.59 3.61-4.52 16.03-8.59 37.49-12.42 21.46-3.61 35.92-13.1 42.92-28.23 7.01-15.13 10.62-32.3 10.62-51.27v-684.16zm655.71 469.81c0-9.71-4.3-18.07-12.88-24.85-8.58-7.01-17.84-10.39-27.77-10.39-21.91 0-47.89 12.42-77.72 37.05-17.39 15.13-30.03 22.59-37.94 22.59-11.52 0-17.17-4.98-17.17-14.91 0-22.59 20.56-48.79 61.88-78.61 41.12-29.81 78.4-44.71 111.37-44.71 28.23 0 53.08 10.16 74.09 30.26 21.23 20.33 31.84 44.04 31.84 71.6l-1.35 269.01c0 13.78 4.74 25.08 14 34.34 9.26 9.03 20.33 13.55 33.43 13.55 22.59 0 33.88 8.8 33.88 26.64 0 15.59-11.74 23.5-35.24 23.5-2.71 0-15.81-1.58-39.75-4.75-23.72-3.16-43.6-4.74-59.41-4.74-26.65 0-49.24 1.8-67.31 5.42-18.29 3.62-30.04 5.42-35.23 5.42-8.14 0-15.15-2.48-21.02-7.68-6.1-5.2-9.03-11.74-9.03-19.65 0-12.42 7.68-18.75 23.05-18.75 14.23 0 27.33-4.52 39.76-13.55 12.41-9.26 18.52-22.82 18.52-40.89v-255.9zm303.57 0c0-9.71-4.3-18.07-12.87-24.85-8.59-7.01-17.85-10.39-28.01-10.39-17.61 0-39.3 9.94-65.04 29.81-25.76 19.88-42.7 29.82-51.05 29.82-5.42 0-10.16-1.59-14.23-4.98-4.29-3.16-6.33-7-6.33-11.29 0-19.87 19.43-44.94 58.28-75.21 38.85-30.27 78.16-45.4 118.35-45.4 46.76 0 78.84 19.65 96 59.18 6.11 11.74 9.26 77.25 9.26 196.29l-1.36 112.93c0 14.01 3.85 24.63 11.29 31.85 7.46 7.01 18.98 12.19 34.34 15.13 15.35 3.17 24.62 7.01 28 11.29 3.39 4.3 4.97 9.48 4.97 15.36 0 16.94-10.84 25.53-32.52 25.53-2.94 0-16.26-1.58-39.76-4.75-23.27-3.16-43.14-4.74-59.41-4.74-16.48 0-34.1 1.8-53.53 5.42-19.2 3.62-35.01 5.42-47.88 5.42-7.91 0-14.9-2.71-20.78-7.91-6.1-5.19-9.03-11.74-9.03-19.87 0-14.01 10.16-21.92 30.72-23.95 20.55-2.03 34.1-7.46 40.65-16.26 6.56-8.81 9.94-19.88 9.94-33.2v-255.23zm-604.43 1.58c0-15.81-4.75-28.23-14.23-37.04-9.48-8.81-18.52-13.33-27.33-13.33-26.42 0-39.75-8.36-39.75-25.07 0-19.43 9.48-29.14 28.68-29.14 5.2 0 15.58 1.59 30.94 4.75 15.13 3.16 26.88 4.75 34.79 4.75 10.61 0 21.68-1.36 32.97-4.07s18.97-4.07 23.04-4.07c11.97 0 19.88 2.94 23.95 9.03 3.84 5.88 6.78 30.26 8.59 72.73 1.8 42.69 2.71 92.16 2.71 148.63l-1.36 115.64c0 20.55 1.13 33.2 3.62 38.4 2.48 4.97 7.68 9.93 15.81 14.9 8.13 4.75 17.84 7.91 28.91 9.26 10.83 1.36 18.97 3.39 23.94 6.33 5.2 2.94 7.69 9.03 7.69 18.29 0 15.59-11.29 23.5-33.88 23.5-16.27 0-32.98-1.81-49.69-5.43-16.94-3.61-33.43-5.42-49.92-5.42-13.32 0-29.59 1.81-48.78 5.42-19.2 3.62-33.66 5.43-43.38 5.43-24.85 0-37.27-7.23-37.27-21.46 0-10.61 2.26-17.62 7.01-21.01 4.52-3.39 13.1-5.65 25.3-7.23 12.42-1.58 22.37-5.2 30.04-10.61 7.91-5.65 12.65-12.88 14.68-21.69 2.03-8.8 2.94-26.87 2.94-54.44v-217.06zm934.89 448.12c2.71-25.07 4.06-94.64 4.06-208.7 0-54.89-1.35-135.29-4.06-241-.68-10.84-5.43-20.56-13.55-28.68-8.14-8.14-25.31-14.46-51.28-18.75-19.87-3.17-32.75-7.01-38.62-11.29-6.1-4.52-9.03-10.16-9.03-16.71 0-17.4 13.77-26.21 41.34-26.21 5.19 0 18.29 2.03 39.07 6.1 21.01 4.07 34.11 6.1 39.31 6.1 5.87 0 17.84-2.48 35.91-7.45 18.3-4.98 29.59-7.46 33.88-7.46 11.97 0 19.65 2.71 22.59 7.91 3.16 5.42 4.75 13.55 4.75 24.62v233.55c0 47.66 14.9 85.38 44.94 113.39 30.04 28.01 65.27 42.02 105.48 42.02 19.43 0 44.04-8.36 74.31-25.3 30.27-16.94 53.99-41.57 70.93-73.64 16.94-32.07 25.53-68.43 25.53-108.87 0-47.88-14.68-90.35-44.04-127.84-29.36-37.27-63.47-56.02-102.55-56.02-23.26 0-44.94 4.29-64.59 12.87-19.65 8.59-32.53 12.87-38.63 12.87-6.33 0-11.74-2.03-16.71-5.87-4.75-4.07-7.23-8.81-7.23-14.46 0-13.09 16.26-26.64 48.56-40.43 32.29-13.78 60.08-20.56 83.57-20.56 71.14 0 131 22.82 179.11 68.22 48.11 45.62 72.28 107.51 72.28 185.88 0 60.54-24.85 116.09-74.54 166.91-49.69 50.82-109.55 76.35-179.57 76.35-26.87 0-52.17-3.61-76.12-10.61-23.94-7.01-55.34-23.27-94.19-49.01-3.39 0-5.2 11.29-5.2 33.88 0 55.79-3.84 98.25-11.29 127.62-7.68 29.13-20.33 54.43-38.62 75.89-18.3 21.69-36.14 36.82-53.53 45.85-17.62 9.03-34.56 13.55-51.05 13.55-24.4 0-36.59-5.88-36.59-17.62 0-4.97 5.42-10.38 16.49-16.26 26.64-14.45 44.71-33.43 54.43-56.47 9.71-23.04 14.46-44.49 14.46-64.37zm778.13-194.25c0 11.74 3.17 21.91 9.26 30.27 6.33 8.58 19.88 14.45 41.11 18.07 21.23 3.39 34.33 7.91 38.85 13.32 4.75 5.42 7.01 12.19 7.01 20.33 0 14.45-10.84 21.69-32.53 21.69-13.32 0-33.2-1.81-59.4-5.43-26.21-3.61-45.85-5.42-59.2-5.42-12.42 0-30.71 1.81-54.66 5.42-23.94 3.62-42.01 5.43-54.43 5.43-17.85 0-29.36-2.04-34.33-6.11-5.2-4.06-7.69-9.7-7.69-16.94 0-7.23 2.04-13.32 6.33-18.29 4.29-4.97 17.39-9.03 39.76-12.42 22.36-3.39 37.04-10.61 43.81-21.91 7.01-11.07 10.39-24.18 10.39-39.31v-713.52c0-15.35-3.62-28.9-10.62-40.66-7-11.74-21.68-20.1-43.81-25.52-22.14-5.2-35.24-10.62-39.53-16.04-4.29-5.42-6.33-11.52-6.33-18.3 0-6.78 3.62-12.19 11.07-16.26 7.23-4.07 14.9-6.1 23.04-6.1 7 0 17.62 1.36 31.62 4.07s24.17 4.07 30.94 4.07c7.46 0 18.97-1.36 33.88-4.07 15.13-2.71 26.66-4.07 34.11-4.07 14.23 0 24.63 3.84 31.4 11.29 6.55 7.46 9.93 21.01 9.93 40.43v795.97zm649.15-20.78c0 31.85 21.23 53.76 63.69 66.18 10.61 3.16 18.52 6.78 23.5 10.84 5.19 4.06 7.68 11.74 7.68 23.04 0 5.87-3.39 10.84-10.16 15.13-7.01 4.29-14.23 6.55-22.36 6.55-8.37 0-19.66-2.03-34.11-6.1-14.23-4.07-25.75-6.1-34.56-6.1-10.16 0-23.04 2.03-38.62 6.1-15.36 4.07-25.76 6.1-30.95 6.1-6.32 0-12.42-2.26-18.29-7-5.88-4.75-9.03-9.48-9.03-14.23 0-7.46-2.03-11.29-6.55-11.29-3.17 0-7.01 1.58-11.97 4.75-49.69 31.16-103.68 46.75-161.5 46.75-27.33 0-58.05-7.01-91.71-21.24-33.88-14-60.76-35.68-81.08-65.04-20.33-29.36-30.49-65.73-30.49-108.87 0-46.08 21.91-86.51 65.73-121.97 43.81-35.24 100.05-52.86 169.17-52.86 23.27 0 49.01 6.56 76.8 19.65 28 12.88 42.01 26.21 42.01 39.99 0 6.55-2.93 11.96-8.58 15.81-5.88 4.06-12.88 6.1-21.24 6.1-5.65 0-16.94-4.07-33.88-11.74-16.71-7.69-33.88-11.52-51.72-11.52-36.14 0-66.18 10.61-90.13 31.85-23.72 21.23-35.68 49.69-35.68 85.15 0 41.33 13.77 72.95 41.11 95.09 27.32 22.14 58.95 33.2 94.64 33.2 32.3 0 61.89-10.61 89.22-31.84 27.1-21.01 40.66-49.24 40.66-84.47v-179.35c0-26.87-8.8-48.78-26.65-65.5-17.84-16.71-41.56-25.07-71.37-25.07-38.18 0-75.22 11.97-111.13 36.14-12.42 8.36-20.79 12.64-25.08 12.64-10.61 0-19.43-2.71-26.87-8.36-7.46-5.42-11.29-12.65-11.29-21.46 0-21.46 19.65-39.75 59.18-54.89 39.53-14.9 82.44-22.36 129.2-22.36 57.83 0 104.35 14.45 139.59 43.6 35.23 29.13 52.85 63.91 52.85 104.12v222.48zm641.02 20.78c0 18.98 3.16 31.4 9.71 37.5 6.32 5.87 17.84 10.61 34.55 14.45 16.49 3.84 24.85 10.84 24.85 21.24 0 14-8.13 21-24.62 21-3.16 0-16.49-.9-39.98-2.71-23.5-1.81-43.15-2.71-59.18-2.71-26.65 0-49.02 1.81-67.08 5.42-18.3 3.62-30.04 5.43-35.47 5.43-7.91 0-15.35-2.71-22.13-8.14-7.01-5.2-10.39-11.74-10.39-19.2 0-5.87 2.94-11.29 8.59-16.49 5.65-5.19 12.42-7.68 19.88-7.68 14 0 26.64-4.07 37.72-12.19 11.06-8.37 16.48-20.56 16.48-36.82 0-106.61.68-172.56 2.04-198.09 1.35-25.3 2.03-39.53 2.03-42.7 0-34.55-15.81-51.72-46.97-51.72-13.55 0-32.75 10.39-57.83 31.17s-42.69 31.17-53.08 31.17c-3.62 0-7.46-2.26-11.74-6.78-4.3-4.52-6.56-9.26-6.56-14.23 0-15.81 20.11-39.53 60.54-71.15 40.44-31.62 79.96-47.43 118.58-47.43 22.82 0 42.47 5.88 59.18 17.62 16.72 11.74 27.78 26.42 33.43 44.04 5.42 17.61 8.14 42.69 8.14 74.99l-.68 42.24v191.76zm-405.21-253.88c0-16.49-3.17-28.68-9.48-37.04-6.56-8.14-19.88-14.01-39.99-17.4-20.33-3.61-30.49-12.87-30.49-27.77 0-6.33 3.62-12.65 10.62-18.75 7.23-6.1 16.48-9.03 28-9.03 4.75 0 13.32 1.58 25.53 4.75 12.19 3.16 22.36 4.74 30.26 4.74 4.97 0 16.04-1.35 33.65-4.07 17.62-2.71 28.46-4.06 32.98-4.06 8.8 0 15.13 3.61 18.52 11.06 3.62 7.23 5.65 21.91 6.1 44.04.91 36.82 1.36 76.12 1.36 117.67l-4.07 189.51c0 13.55 1.13 22.13 3.39 25.07 2.04 3.17 7.23 7.23 15.36 11.97 8.14 4.97 18.75 8.8 31.39 11.29 12.88 2.71 21.01 6.33 24.63 11.06 3.39 4.75 5.2 10.39 5.2 16.72 0 14.9-11.52 22.36-34.56 22.36-15.81 0-32.3-1.58-49.01-4.74-16.94-3.17-33.43-4.75-49.92-4.75-13.32 0-30.49 1.36-51.5 4.07-21 2.71-36.59 4.07-46.75 4.07-22.59 0-33.88-8.37-33.88-24.85 0-7.01 2.04-12.88 5.88-17.17 4.07-4.52 12.64-7.23 25.98-8.14 14.9-.9 24.17-3.16 27.78-6.55 9.93-10.61 16.48-20.1 18.97-28 2.71-7.91 4.07-24.4 4.07-49.02v-217.06zm738.83 199c0 37.04 1.81 60.76 5.2 71.14 3.39 10.39 9.71 15.59 18.75 15.59 14 0 31.62-7.91 52.17-23.72 20.56-15.81 34.56-23.72 42.02-23.72 6.1 0 11.29 2.71 15.81 7.91 4.75 5.42 7.01 11.97 7.01 19.42 0 12.42-17.4 32.75-51.95 60.77-34.56 28-65.05 42.01-91.48 42.01-69.8 0-104.58-51.04-104.58-152.91v-254.1c0-8.36-1.13-12.87-3.39-13.55-2.03-.67-14.45-.9-37.04-.9-17.62 0-29.59-2.71-35.69-7.91-6.1-5.2-9.26-12.64-9.26-22.59 0-8.59 2.26-14.68 7.01-18.29 4.52-3.62 13.55-7.24 27.1-11.07 13.32-3.61 23.72-8.13 30.94-13.1 7.23-5.19 17.39-15.81 30.49-31.84 12.87-16.04 22.14-38.85 27.55-67.76 5.65-29.14 8.36-71.15 8.36-125.81 0-25.98 7.23-39.08 21.69-39.08 16.26 0 26.42 3.62 30.49 10.84 4.07 7.46 6.1 19.65 6.1 36.82v220.89c0 8.81 5.65 13.33 17.17 13.33h93.96c18.98 0 28.46 8.36 28.46 25.07 0 19.43-13.55 29.13-40.89 29.13h-82.66c-6.33 0-9.94.91-11.29 2.94-1.36 2.04-2.04 7.01-2.04 14.91v235.59zm1270.75-55.57c6.78 0 12.64 2.49 17.39 7.68 4.97 4.98 7.46 9.49 7.46 13.55 0 15.36-17.85 40.21-53.31 73.86-35.46 33.88-82 62.79-139.37 86.96-57.37 24.18-117.9 36.14-181.83 36.14-103.22 0-192.89-22.59-269.01-67.53-76.13-44.94-134.62-107.51-175.05-187.92-40.66-80.18-60.99-163.76-60.99-250.04 0-86.51 19.88-167.59 59.63-243.26 39.76-75.67 96.23-134.62 169.4-177.08 73.18-42.24 158.11-63.47 254.78-63.47 61.65 0 118.8 8.14 170.98 24.17 52.4 16.04 93.52 35.69 123.78 58.51 30.27 23.04 45.4 40.43 45.4 52.4 0 18.52-.45 35.23-1.36 50.37-.9 14.9-1.35 23.94-1.35 27.1 0 5.19 1.58 13.32 4.74 24.17 3.17 10.84 4.75 20.78 4.75 30.04 0 14.68-9.03 21.91-27.1 21.91-5.65 0-11.29-2.71-16.94-7.91-5.88-5.43-14-20.33-25.08-44.72-23.5-51.95-48.79-89.67-75.68-113.17-47.42-41.33-113.61-61.88-198.54-61.88-109.32 0-194.25 39.76-255.23 119.03-60.76 79.5-91.25 182.06-91.25 307.63 0 136.88 32.98 244.84 98.7 324.35 65.73 79.27 154.49 119.03 266.3 119.03 28.69 0 73.87-9.71 135.52-29.14 61.66-19.42 122.43-56.92 182.52-112.71 13.32-11.97 23.72-18.07 30.72-18.07z" fill="#2b2a29" fill-rule="nonzero" data-color="1"/>
        <path d="M22789.09 9088.21c10.16 0 16.94-1.81 20.55-5.2 3.39-3.39 5.2-9.7 5.2-18.97 0-33.2-13.1-64.6-39.53-93.51-26.2-29.14-65.72-43.6-118.8-43.6-36.82 0-74.54 17.39-113.62 51.95-39.08 34.78-58.73 84.02-58.73 147.72 0 46.53 20.55 88.32 61.66 125.59 41.11 37.04 87.41 55.56 138.45 55.56 38.63 0 80.41-12.19 125.36-36.36 17.17-9.26 28.46-13.78 33.66-13.78 7.91 0 14.22 2.26 18.74 6.78 4.75 4.29 7.01 9.93 7.01 16.49 0 16.03-24.4 35.69-73.18 58.73-48.79 23.04-98.93 34.56-150.65 34.56-76.35 0-140.5-25.98-192.67-78.16-52.18-51.95-78.16-113.84-78.16-185.89 0-65.72 28.69-121.97 85.83-168.72 57.15-46.75 121.29-70.02 192.22-70.02 92.38 0 161.5 23.5 207.34 70.7 45.85 47.2 68.89 103.67 68.89 169.17 0 14.23-3.61 22.82-10.61 26.21-7 3.39-19.88 4.97-38.85 4.97h-302.67c-24.62 0-36.82-9.25-36.82-27.78 0-17.61 12.88-26.42 38.4-26.42h210.97zm683.03 168.72c0 18.98 3.16 31.4 9.71 37.5 6.32 5.87 17.84 10.61 34.55 14.45 16.49 3.84 24.85 10.84 24.85 21.24 0 14-8.13 21-24.62 21-3.16 0-16.49-.9-39.98-2.71-23.5-1.81-43.15-2.71-59.18-2.71-26.65 0-49.02 1.81-67.08 5.42-18.3 3.62-30.04 5.43-35.47 5.43-7.91 0-15.35-2.71-22.13-8.14-7.01-5.2-10.39-11.74-10.39-19.2 0-5.87 2.94-11.29 8.59-16.49 5.65-5.19 12.42-7.68 19.88-7.68 14 0 26.64-4.07 37.72-12.19 11.06-8.37 16.48-20.56 16.48-36.82 0-106.61.68-172.56 2.04-198.09 1.35-25.3 2.03-39.53 2.03-42.7 0-34.55-15.81-51.72-46.97-51.72-13.55 0-32.75 10.39-57.83 31.17s-42.69 31.17-53.08 31.17c-3.62 0-7.46-2.26-11.74-6.78-4.3-4.52-6.56-9.26-6.56-14.23 0-15.81 20.11-39.53 60.54-71.15 40.44-31.62 79.96-47.43 118.58-47.43 22.82 0 42.47 5.88 59.18 17.62 16.72 11.74 27.78 26.42 33.43 44.04 5.42 17.61 8.14 42.69 8.14 74.99l-.68 42.24v191.76zm-405.21-253.88c0-16.49-3.17-28.68-9.48-37.04-6.56-8.14-19.88-14.01-39.99-17.4-20.33-3.61-30.49-12.87-30.49-27.77 0-6.33 3.62-12.65 10.62-18.75 7.23-6.1 16.48-9.03 28-9.03 4.75 0 13.32 1.58 25.53 4.75 12.19 3.16 22.36 4.74 30.26 4.74 4.97 0 16.04-1.35 33.65-4.07 17.62-2.71 28.46-4.06 32.98-4.06 8.8 0 15.13 3.61 18.52 11.06 3.62 7.23 5.65 21.91 6.1 44.04.91 36.82 1.36 76.12 1.36 117.67l-4.07 189.51c0 13.55 1.13 22.13 3.39 25.07 2.04 3.17 7.23 7.23 15.36 11.97 8.14 4.97 18.75 8.8 31.39 11.29 12.88 2.71 21.01 6.33 24.63 11.06 3.39 4.75 5.2 10.39 5.2 16.72 0 14.9-11.52 22.36-34.56 22.36-15.81 0-32.3-1.58-49.01-4.74-16.94-3.17-33.43-4.75-49.92-4.75-13.32 0-30.49 1.36-51.5 4.07-21 2.71-36.59 4.07-46.75 4.07-22.59 0-33.88-8.37-33.88-24.85 0-7.01 2.04-12.88 5.88-17.17 4.07-4.52 12.64-7.23 25.98-8.14 14.9-.9 24.17-3.16 27.78-6.55 9.93-10.61 16.48-20.1 18.97-28 2.71-7.91 4.07-24.4 4.07-49.02v-217.06zm738.83 199c0 37.04 1.81 60.76 5.2 71.14 3.39 10.39 9.71 15.59 18.75 15.59 14 0 31.62-7.91 52.17-23.72 20.56-15.81 34.56-23.72 42.02-23.72 6.1 0 11.29 2.71 15.81 7.91 4.75 5.42 7.01 11.97 7.01 19.42 0 12.42-17.4 32.75-51.95 60.77-34.56 28-65.05 42.01-91.48 42.01-69.8 0-104.58-51.04-104.58-152.91v-254.1c0-8.36-1.13-12.87-3.39-13.55-2.03-.67-14.45-.9-37.04-.9-17.62 0-29.6-2.71-35.7-7.91-6.1-5.2-9.26-12.64-9.26-22.59 0-8.59 2.26-14.68 7.01-18.29 4.52-3.62 13.55-7.24 27.11-11.07 13.32-3.61 23.72-8.13 30.94-13.1 7.23-5.19 17.39-15.81 30.49-31.84 12.87-16.04 22.14-38.85 27.55-67.76 5.65-29.14 8.36-71.15 8.36-125.81 0-25.98 7.23-39.08 21.69-39.08 16.26 0 26.42 3.62 30.49 10.84 4.07 7.46 6.1 19.65 6.1 36.82v220.89c0 8.81 5.65 13.33 17.17 13.33h93.96c18.98 0 28.46 8.36 28.46 25.07 0 19.43-13.55 29.13-40.89 29.13h-82.66c-6.33 0-9.94.91-11.29 2.94-1.36 2.04-2.04 7.01-2.04 14.91v235.59zm400.92-174.38 2.71 18.53c2.04 0 12.42-21.01 30.72-63.02 18.29-41.79 36.59-71.6 54.89-89.44 18.29-17.62 37.27-26.42 56.69-26.42 15.13 0 26.65 2.71 34.33 8.13 7.91 5.43 11.74 11.29 11.74 18.07 0 11.74-2.71 21.01-7.9 27.78-5.43 7.01-14.68 15.58-28.01 25.98-56.24 42.47-96.67 94.19-121.74 155.17-25.08 60.76-37.5 111.58-37.5 152.01 0 18.97 2.49 31.84 7.69 38.62 4.97 6.78 17.39 12.65 36.81 17.17 19.43 4.74 31.85 9.71 37.73 14.9 5.65 5.43 8.58 11.75 8.58 18.75 0 12.87-7.68 19.43-23.26 19.43-12.42 0-29.59-2.04-51.5-6.1-21.91-4.07-45.4-6.11-70.7-6.11-16.94 0-33.88 2.04-51.27 6.11-17.17 4.06-28.23 6.1-33.2 6.1-12.42 0-22.37-2.49-29.81-7.23-7.46-4.75-11.29-10.62-11.29-17.85 0-5.42 2.03-10.38 6.32-14.68 4.07-4.29 16.04-9.71 35.47-16.26 19.2-6.55 31.16-13.1 35.68-19.65 4.3-6.56 6.56-27.1 6.56-61.89V9025.2c0-12.65-2.94-24.17-9.03-34.11-5.88-10.16-17.85-17.84-35.69-23.49-17.84-5.43-28.23-10.16-31.62-14.23-3.39-4.07-4.97-8.59-4.97-13.55 0-14.9 10.38-22.36 31.17-22.36 5.87 0 15.58 1.13 29.13 3.39 13.32 2.26 22.82 3.39 28.23 3.39 4.29 0 11.51-.91 21.46-2.71 10.16-1.81 21.91-2.72 35.69-2.72 23.94 0 35.91 25.53 35.91 76.35v32.52zm639.66 60.54c10.16 0 16.94-1.81 20.55-5.2 3.39-3.39 5.2-9.7 5.2-18.97 0-33.2-13.1-64.6-39.53-93.51-26.2-29.14-65.72-43.6-118.8-43.6-36.82 0-74.54 17.39-113.62 51.95-39.08 34.78-58.73 84.02-58.73 147.72 0 46.53 20.55 88.32 61.66 125.59 41.11 37.04 87.41 55.56 138.45 55.56 38.63 0 80.41-12.19 125.36-36.36 17.17-9.26 28.46-13.78 33.66-13.78 7.91 0 14.22 2.26 18.74 6.78 4.75 4.29 7.01 9.93 7.01 16.49 0 16.03-24.4 35.69-73.18 58.73-48.79 23.04-98.93 34.56-150.65 34.56-76.35 0-140.5-25.98-192.67-78.16-52.18-51.95-78.16-113.84-78.16-185.89 0-65.72 28.69-121.97 85.83-168.72 57.15-46.75 121.29-70.02 192.22-70.02 92.38 0 161.5 23.5 207.34 70.7 45.85 47.2 68.89 103.67 68.89 169.17 0 14.23-3.61 22.82-10.61 26.21-7 3.39-19.88 4.97-38.85 4.97h-302.67c-24.62 0-36.82-9.25-36.82-27.78 0-17.61 12.88-26.42 38.4-26.42h210.97z" fill="#2b2a29" fill-rule="nonzero" data-color="1"/>
        <path d="m9857.37 5071.43-11.52-2384.1-427.18-368.71c-7.69-8.64-13.44-19.2-19.2-28.8-5.76-10.56-8.65-19.2-8.65-24.01 0-11.52 4.81-20.16 14.4-25.93 8.64-5.76 24.96-9.59 47.03-13.44l1113.55-93.14-143.99 2868.99-564.46 69.13zm-132.48-4003.9c0-123.87 45.12-231.41 134.4-323.59 90.24-91.21 198.71-137.3 326.38-137.3 125.76 0 233.27 45.13 324.46 136.34 91.2 91.22 136.32 198.76 136.32 324.54 0 127.7-45.12 236.2-136.32 326.45-91.2 89.3-198.71 134.42-324.46 134.42-123.83 0-231.35-46.08-323.51-137.3-91.2-92.18-137.28-199.72-137.28-323.58zm1364.12 3808.04-48-316.86c144 47.04 288 81.61 431.03 104.66 143.99 22.08 292.78 33.6 446.38 33.6 277.43 0 503.98-42.25 680.61-125.78 175.67-83.54 264-183.4 264-299.58 0-72.97-43.22-136.34-128.65-188.19-86.39-52.81-277.43-120.98-573.09-203.55-452.15-127.71-746.85-243.88-884.13-349.5-137.27-106.58-205.43-245.81-205.43-417.67 0-261.17 154.55-489.69 463.66-685.57 310.08-195.87 685.42-293.81 1126.05-293.81 138.23 0 277.42 9.6 417.58 27.84 139.19 19.21 276.47 46.09 411.82 81.62l-48 612.58c-3.84 33.61-8.65 55.7-14.4 64.33-4.8 9.6-15.35 14.4-30.71 14.4-9.6 0-18.25-1.92-27.83-6.72-9.6-4.81-17.29-10.56-23.05-15.36l-438.7-376.4c-54.72-11.51-110.4-19.2-167.03-24.96-56.65-5.77-119.99-8.65-189.12-8.65-226.55 0-415.66 40.33-567.33 121.94-151.67 81.61-227.52 181.48-227.52 299.57 0 140.19 227.52 265.97 682.54 376.4 85.43 21.12 151.66 36.48 198.71 48 356.16 94.1 602.86 195.88 739.17 306.3 137.27 110.42 205.44 256.36 205.44 435.92 0 273.64-144.96 506.01-434.87 696.12-288.95 190.11-651.82 285.17-1086.67 285.17-191.04 0-370.55-16.32-538.54-49.93-167.99-33.6-311.99-82.57-433.9-145.94zm3881.13 195.87c-16.32-86.41-34.55-168.02-54.72-245.8-19.2-76.82-41.28-150.74-66.24-219.88l-655.65-1988.5-382.07-335.1c-7.68-5.77-14.4-12.48-19.2-22.09-4.8-9.6-6.71-21.13-6.71-33.61 0-15.36 5.75-26.88 17.27-35.52 11.52-8.65 27.84-12.48 50.88-12.48l875.48-45.13 606.7 2236.24 781.4-2166.14 307.18-70.1 648.94 2236.24 664.29-1654.38c76.8-194.92 164.16-340.87 263.03-436.88 97.91-96.97 210.24-144.99 335.99-144.99 37.44 0 70.07 5.77 99.84 17.29 28.79 10.55 43.2 23.04 43.2 36.48 0 0-1.92 4.81-5.77 13.44-3.84 9.6-5.76 16.33-5.76 20.17l-1256.59 2781.61-466.54 72.01c-23.04-96.02-44.15-181.47-65.27-257.32-20.16-74.89-37.44-132.5-49.92-171.87l-441.58-1358.63-767.97 1715.82-450.22 69.13zm5882.64-2332.25c-118.07-29.77-224.63-51.85-319.67-66.25-94.08-14.4-181.44-21.13-260.15-21.13-383.98 0-705.57 110.42-962.84 330.3-258.23 220.83-386.87 490.65-386.87 811.35 0 200.68 56.65 360.06 169.92 478.16 113.28 118.1 266.87 177.64 459.83 177.64 304.3 0 567.33-145.95 789.09-437.84 222.7-290.93 392.62-715.33 510.69-1272.22zm58.56-543.46 27.84-211.24c3.85-22.08 8.64-36.48 12.47-43.21 4.81-6.73 12.48-9.6 21.13-9.6 7.68 0 15.36.96 23.03 3.85 7.69 2.88 12.48 5.76 16.33 7.68l462.7 229.48c-35.51 438.8-62.39 847.84-81.59 1227.1-18.24 379.26-27.84 695.16-27.84 946.73 0 230.44 13.44 434.95 39.37 615.47 3.83 22.09 5.76 35.53 5.76 39.37 0 22.09-8.64 39.37-26.87 51.85-17.29 12.48-45.12 18.24-82.56 18.24-147.84 0-268.79-69.13-362.86-206.43-95.04-137.31-142.07-318.78-142.07-543.46 0-87.37 16.31-260.2 47.99-516.58l2.88-27.84c-221.75 422.48-458.86 744.14-713.25 964.01-254.38 219.88-515.51 330.3-783.33 330.3-280.31 0-508.78-92.18-688.29-275.56-179.52-183.4-268.79-418.64-268.79-705.73 0-258.29 65.27-513.7 196.78-764.29 131.52-251.57 316.8-478.17 556.78-680.76 197.76-165.16 408-291.89 633.59-379.27 224.62-88.33 450.21-132.5 674.84-132.5 58.56 0 125.75 4.81 201.59 15.37 75.84 10.55 160.31 25.92 254.38 47.04zm1225.87 2875.71-34.56-3923.25-395.5-317.82c-9.59-9.6-17.28-17.28-22.08-24.97-5.76-7.69-8.64-14.4-8.64-20.16 0-13.44 4.8-23.05 13.43-29.77 9.6-5.76 23.05-9.59 39.37-9.59l1076.11-75.86-98.87 2880.51 1637.71-1417.21 385.9 374.47c4.8 4.81 10.55 13.44 15.36 24.01 4.8 9.6 6.72 18.25 6.72 23.05 0 7.68-3.84 16.32-11.52 25.93-7.68 9.6-16.31 17.28-27.83 24.97l-1153.87 813.27 1254.67 1453.69c26.87 30.73 60.47 62.41 101.75 96.02 41.28 34.57 61.43 56.66 61.43 68.18 0 29.76-32.64 60.49-98.87 91.21-65.27 31.69-134.4 47.05-207.35 47.05-72.96 0-138.23-10.56-195.84-31.68-56.64-21.13-107.52-52.81-149.75-96.98l-1294.99-1259.74-335.02 247.73-33.6 967.85-524.14 69.13z" fill="#78b833" fill-rule="nonzero" data-color="2"/>
        <path d="m4315.18 6102.12-51.25 1181.28v63.04c0 44.33 15.46 78.11 46.37 100.88 30.91 22.37 76.48 33.76 137.08 33.76 64.27 0 134.23-14.64 209.89-43.53 76.07-28.88 145.62-67.93 209.07-117.55 89.09-68.75 157.43-154.58 205.83-256.67 48.4-102.1 72.81-212.75 72.81-331.93 0-190.78-71.18-342.91-213.55-456.4-142.78-113.49-333.96-170.44-574.76-170.44-4.48 0-11.8-.4-21.16-1.22-9.76-.81-16.27-1.22-20.34-1.22zM3995.47 7686.1l-7.33-1518.07-163.53-190.37c-3.25-3.26-5.69-6.51-7.32-9.76-1.63-3.26-2.44-6.1-2.44-9.35 0-4.07 1.62-7.33 4.88-10.17s6.92-4.07 11.79-4.07l370.16-15.45c17.49-.82 37.83-1.63 61.02-2.04 22.78-.4 62.64-.4 119.18-.4 346.98 0 610.96 61.82 791.98 185.89 181.02 123.66 271.31 303.86 271.31 539.78 0 161.09-43.11 314.85-129.35 461.69-86.23 146.45-206.63 271.33-361.21 374.65-104.94 70.77-218.83 121.21-341.27 151.72-122.85 30.5-300.2 45.96-532.06 45.96h-85.82zm1742.58 0-7.32-1527.84-148.89-183.87c-1.63-2.03-3.25-5.29-4.88-9.35-1.63-4.07-2.44-7.32-2.44-9.76 0-4.47 2.03-8.14 6.1-10.57 3.66-2.44 10.17-3.66 19.12-3.66h1287.42c13.42 0 22.38.81 26.84 2.85 4.48 2.03 6.92 6.1 7.74 11.38 0 .82-.41 2.85-1.63 6.11-1.22 3.25-2.85 6.51-4.48 9.76l-58.17 122.03-809.47 40.68-19.52 507.65 780.17 6.11c9.35 0 15.86.81 19.53 2.03 3.66 1.63 5.29 4.89 5.29 9.76 0 1.63-1.22 4.88-3.67 9.35-.81.81-1.22 1.63-1.22 2.44l-90.3 121.63-717.12 64.26-17.09 353.49c0 6.51-.4 18.31-1.22 35.8-.81 17.49-1.22 31.32-1.22 41.49 0 65.08 18.71 111.05 55.72 138.3 37.02 26.85 101.29 40.28 192.81 40.28l571.5-2.44c19.12 0 31.32 1.62 37.43 4.88 6.1 3.26 8.94 9.35 8.94 19.12 0 29.28-21.97 61.42-65.89 96.81-44.34 34.98-94.38 54.91-150.9 59.39-17.49 1.63-126.51 6.1-326.64 13.83-200.54 7.73-396.18 17.08-586.56 28.06zm1708.01-1376.11-48.81 1232.53c-2.44 61.82-18.71 113.49-49.21 154.98-30.51 41.08-62.63 61.82-96.8 61.82-12.61 0-21.16-3.26-25.63-9.35-4.48-6.51-6.52-22.78-6.52-49.22 0-6.1.41-13.42 1.23-21.97.81-8.14 1.22-13.42 1.22-15.86V6193.25l-154.17-183.46c-5.29-7.32-9.35-12.6-11.38-16.27-2.04-3.25-2.85-6.1-2.85-7.73 0-4.48 2.03-8.55 6.51-10.98 4.48-2.85 12.2-5.29 23.19-6.92l470.62-41.49 895.71 1408.25-7.33-1371.24 201.35-34.57c3.26-.82 6.51-1.63 10.16-2.04 3.26-.4 7.74-.4 13.43-.4 1.62 0 3.66 2.03 5.69 6.1 2.45 3.66 3.67 8.55 3.67 14.24l-65.9 1688.11-170.42 58.58c-9.76 3.25-18.31 5.29-26.44 5.29-4.88 0-10.98-5.29-19.12-15.87-1.63-1.22-2.85-2.44-3.66-3.25l-944.52-1369.61zm2166.85 1366.76-216 36.2c-3.66.82-7.73 1.63-10.98 2.04-3.66.4-8.54.4-15.05.4-6.51 0-10.57-1.62-13.01-5.29-2.44-3.66-3.66-10.57-3.66-21.56v-19.12l-19.53-1491.63-468.59 7.32c1.63-19.12 4.48-56.14 8.55-110.64 3.66-54.92 6.92-99.25 9.35-133.42l1273.99 7.32h9.35c9.76 0 15.86 1.63 19.12 5.3 3.26 3.66 4.88 9.75 4.88 18.3 0 66.3-38.24 113.89-114.7 142.37-76.07 28.88-216.82 45.15-422.22 49.22l-41.5 1513.2zm886.74-693.54 619.51 17.89-277.81-672.4-341.69 654.51zm202.57-971.38 297.76-100.07 654.08 1744.65-218.03 90.71-247.73-580.87-453.95 4.88h-20.34c-213.55 2.44-355.1 68.34-424.25 197.7l-139.12 263.99c-23.19 43.93-50.44 75.67-82.16 96.01-31.73 20.34-70.38 30.5-115.52 30.5-14.24 0-26.85-2.03-37.43-6.1-10.98-4.07-16.27-8.14-16.27-13.02 0-2.44.82-5.7 2.44-9.76 1.63-4.07 4.89-10.98 9.36-21.56l558.9-1084.45c95.99-185.08 158.63-316.47 187.92-394.57 29.69-77.7 44.33-141.96 44.33-192.81v-25.22zm1188.17 181.42-154.17-183.46c-5.28-7.32-9.34-12.6-11.37-15.86-2.04-3.66-2.85-6.51-2.85-8.14 0-4.48 2.03-8.55 6.51-10.98 4.48-2.85 12.19-5.29 23.58-6.51l470.23-41.9-53.69 1384.65c0 .82-.41 4.07-1.22 10.57-.82 23.6-1.22 46.78-1.22 69.15 0 31.73 11.79 54.92 35.39 69.16 23.18 14.23 72.4 21.96 147.25 23.59l520.25 4.89c19.93 0 33.76 2.03 41.9 6.51 7.74 4.47 11.8 11.38 11.8 20.74 0 42.31-23.6 78.52-70.38 109.02-46.77 30.51-110.64 47.18-190.77 49.63l-763.91 24-7.32-1505.06zm3254.13 1492.86c-15.05 3.26-37.02 6.92-65.49 10.98-90.71 13.83-152.54 20.75-185.88 20.75l-7.33-846.91-486.5 26.44c-149.68 8.54-240.79 29.28-273.34 61.82-32.54 32.54-51.65 104.54-57.35 216l-19.94 362.84c0 7.33-.4 17.9-1.22 32.13-.81 50.04-6.1 79.73-15.45 89.09-14.24 15.86-49.22 36.61-104.14 61.82-55.32 25.63-91.93 38.24-110.24 38.24-8.14 0-13.82-2.85-17.49-8.14-3.66-5.29-5.29-15.05-5.29-28.88l-7.32-1529.47-154.16-183.86c-5.29-7.33-9.35-12.61-11.38-16.27-2.04-3.26-2.85-6.11-2.85-7.73 0-4.48 2.03-8.55 6.51-10.98 4.48-2.85 12.19-5.3 23.18-6.92l470.63-40.68-34.17 778.97 798.08 14.24-4.89-757.01 331.92-21.56-65.89 1745.05zm810.69-1461.54c-80.95 80.94-142.38 169.22-183.87 265.22-41.9 96.4-62.64 196.88-62.64 302.64 0 185.08 62.64 342.91 187.52 474.3 125.29 131.39 275.37 197.29 449.88 197.29 161.49 0 298.98-59.4 412.46-178.58 113.48-119.18 170.43-262.78 170.43-431.18 0-191.18-65.09-350.63-195.25-477.96-130.58-127.32-295.31-191.18-494.64-191.18-52.47 0-102.08 3.26-148.87 10.17-47.18 6.51-91.93 16.27-135.04 29.28zm-279.86 104.54-107.39-100.06c-5.29-4.48-8.95-8.14-10.58-10.57-1.62-2.45-2.44-4.48-2.44-6.11 0-6.92 17.49-23.19 52.88-47.59 35.39-24.82 81.35-52.88 137.9-84.61 97.62-54.1 198.91-96 304.27-124.88 105.35-28.87 207.03-43.53 305.48-43.53 236.73 0 431.58 76.07 584.12 228.2 152.53 152.13 228.6 344.54 228.6 577.21 0 114.3-20.74 227.39-62.63 338.85-41.5 111.46-101.29 215.18-179.39 310.36-95.19 115.93-202.16 202.98-320.13 261.56-117.96 58.17-247.32 87.45-388.06 87.45-210.7 0-389.27-72.4-535.71-217.22-146.84-144.81-220.05-324.6-220.05-538.97 0-119.18 17.5-230.64 52.07-333.96 34.57-103.73 88.26-202.57 161.08-296.13zm1676.29 1245.13-18.72-172.06v-21.55c0-2.04 1.63-4.88 5.29-7.73 3.26-2.85 7.33-4.07 10.98-4.07 4.07 0 17.09 5.29 39.46 15.45 154.97 74.44 318.09 111.46 489.75 111.46 132.19 0 239.17-23.59 321.34-70.78 82.17-47.59 123.25-106.98 123.25-178.57 0-51.66-23.19-93.56-69.55-125.7-46.78-32.54-163.12-71.59-349.82-117.55-211.52-52.48-355.93-113.5-433.21-183.46-77.69-69.97-116.32-165.15-116.32-285.97 0-172.47 77.28-319.31 232.26-440.12 154.98-121.22 347.79-181.84 578.01-181.84 69.15 0 135.86 5.7 200.54 17.09 65.09 11.79 126.51 28.47 185.49 50.84l-27.25 351.46c-1.63 11.79-4.07 20.34-7.33 24.81-3.25 4.89-6.92 7.33-11.79 7.33-2.44 0-5.29-.41-8.55-1.63-2.85-1.22-6.1-3.25-9.35-5.7l-187.11-165.56c-38.65-13.83-80.13-23.59-123.66-30.1-43.93-6.1-89.49-9.35-137.07-9.35-135.86 0-248.54 26.85-337.62 80.95-89.5 54.1-134.24 120.4-134.24 199.32 0 63.45 31.32 115.52 93.57 156.61 62.23 41.08 175.31 80.94 338.84 119.59 205.81 47.99 351.44 106.16 437.27 174.5 85.83 68.74 128.54 158.24 128.54 268.88 0 146.85-73.22 277.83-219.24 392.54-146.04 114.71-315.24 172.06-507.24 172.06-83.38 0-166.37-11.79-248.54-35.79-82.16-23.6-161.48-58.99-237.94-105.36zm1840.62-684.19c173.68-10.16 314.01-56.95 420.59-139.52 106.17-82.57 159.46-184.67 159.46-306.31 0-109.42-43.13-192.81-129.77-249.76-86.64-56.54-213.96-85.01-382.35-85.01h-39.46l-28.47 780.59zm-22.79 554.43v21.56c-2.44 73.22-13.42 125.69-33.35 157.42-20.75 34.17-52.88 65.49-96.4 93.56-43.93 28.07-76.88 42.31-98.84 42.31-9.76 0-16.27-1.63-19.12-4.88-3.26-3.26-5.29-10.98-6.11-24.01v-9.35l-9.76-1541.67-161.08-182.23c-3.26-3.26-5.7-6.52-7.33-10.17-1.62-3.66-2.44-6.92-2.44-10.17 0-6.51 2.85-10.97 8.55-14.23 5.29-3.26 13.01-4.88 22.37-4.88l367.73-11.8c38.24-1.63 76.47-2.85 115.11-3.66 38.65-.81 82.56-1.22 132.59-1.22 218.04 0 388.88 42.71 513.76 127.73 124.87 85.01 187.1 200.13 187.1 345.75 0 164.34-78.1 304.68-234.7 420.2-156.61 115.52-377.48 196.06-662.62 241.62l-15.46 368.13zm1441.99 241.62-248.94 29.28-7.32-1522.14-154.17-183.46c-5.29-7.32-9.35-12.6-11.38-16.27-2.04-3.25-2.85-6.1-2.85-7.73 0-4.48 2.03-8.55 6.51-10.98 4.48-2.85 12.2-5.29 23.59-6.92l470.22-41.49-75.66 1759.7zm1056.79-9.35-216 36.2c-3.66.82-7.73 1.63-10.98 2.04-3.66.4-8.54.4-15.05.4-6.51 0-10.57-1.62-13.01-5.29-2.44-3.66-3.66-10.57-3.66-21.56v-19.12l-19.53-1491.63-468.59 7.32c1.63-19.12 4.48-56.14 8.55-110.64 3.66-54.92 6.92-99.25 9.35-133.42l1273.99 7.32h9.35c9.76 0 15.86 1.63 19.12 5.3 3.26 3.66 4.88 9.75 4.88 18.3 0 66.3-38.24 113.89-114.7 142.37-76.07 28.88-216.82 45.15-422.22 49.22l-41.5 1513.2zm886.74-693.54 619.51 17.89-277.81-672.4-341.69 654.51zm202.57-971.38 297.76-100.07 654.08 1744.65-218.03 90.71-247.73-580.87-453.95 4.88h-20.34c-213.55 2.44-355.1 68.34-424.25 197.7l-139.12 263.99c-23.19 43.93-50.44 75.67-82.16 96.01-31.73 20.34-70.38 30.5-115.52 30.5-14.24 0-26.85-2.03-37.43-6.1-10.98-4.07-16.27-8.14-16.27-13.02 0-2.44.82-5.7 2.44-9.76 1.63-4.07 4.89-10.98 9.36-21.56l558.89-1084.45c96-185.08 158.64-316.47 187.93-394.57 29.69-77.7 44.33-141.96 44.33-192.81v-25.22zm1188.17 181.42-154.17-183.46c-5.29-7.32-9.35-12.6-11.38-15.86-2.04-3.66-2.85-6.51-2.85-8.14 0-4.48 2.03-8.55 6.51-10.98 4.48-2.85 12.2-5.29 23.59-6.51l470.23-41.9-53.69 1384.65c0 .82-.41 4.07-1.22 10.57-.82 23.6-1.22 46.78-1.22 69.15 0 31.73 11.79 54.92 35.39 69.16 23.18 14.23 72.4 21.96 147.24 23.59l520.26 4.89c19.93 0 33.76 2.03 41.9 6.51 7.74 4.47 11.8 11.38 11.8 20.74 0 42.31-23.6 78.52-70.38 109.02-46.77 30.51-110.64 47.18-190.77 49.63l-763.91 24-7.32-1505.06z" fill="#ec691f" fill-rule="nonzero" data-color="3"/>
        <path d="M24037.7 606.26V71.13h-199.83V0h480.1v71.13h-199.83v535.13h-80.44zm361.41 0V0h120.24l143.38 429.16c13.26 39.94 22.86 69.86 28.93 89.76 6.91-22.02 17.78-54.48 32.45-97.23L24870.04.01h107.39v606.26h-77.05V99.08l-176.97 507.19h-72.26l-174.99-516.51v516.51h-77.06z" fill="#2b2a29" fill-rule="nonzero" data-color="1"/>
        <path d="M4120.11 7987.12c-37.17 0-67.45 24.98-67.45 55.63 0 30.64 30.28 55.62 67.45 55.62H24910.7c37.17 0 67.46-24.98 67.46-55.62 0-30.65-30.29-55.63-67.46-55.63H4120.11z" fill="#ec691f" fill-rule="nonzero" data-color="3"/>
        <path d="m16974.14 1288.61 77.72-6.99c3.64 31.43 12.22 57.19 25.76 77.42 13.53 20.09 34.49 36.38 62.86 48.9 28.38 12.36 60.4 18.63 95.91 18.63 31.58 0 59.38-4.66 83.53-14.12 24.16-9.45 42.06-22.41 53.85-38.86 11.78-16.44 17.75-34.34 17.75-53.55 0-19.5-5.68-36.53-17.02-51.23-11.35-14.55-30.13-26.77-56.33-36.82-16.73-6.4-53.84-16.59-111.33-30.41-57.48-13.82-97.64-26.77-120.64-39-29.83-15.72-51.95-35.22-66.5-58.36-14.7-23.15-21.98-49.19-21.98-77.87 0-31.72 9.02-61.27 26.92-88.62 17.9-27.5 43.94-48.32 78.44-62.58 34.35-14.26 72.62-21.39 114.67-21.39 46.28 0 87.17 7.42 122.54 22.41 35.36 14.84 62.57 36.82 81.64 65.92 19.06 28.96 29.24 61.85 30.7 98.52l-79.45 6.12c-4.23-39.44-18.63-69.27-43.23-89.36-24.6-20.23-60.98-30.26-109-30.26-50.06 0-86.59 9.16-109.44 27.5-22.85 18.33-34.35 40.46-34.35 66.36 0 22.41 8.16 40.89 24.31 55.44 16.01 14.41 57.49 29.4 124.72 44.53 67.23 15.28 113.37 28.52 138.39 39.88 36.24 16.73 63.16 37.84 80.48 63.59 17.32 25.62 25.91 55.16 25.91 88.63 0 33.32-9.46 64.46-28.52 93.87-19.07 29.39-46.28 52.24-81.93 68.54-35.66 16.3-75.68 24.45-120.35 24.45-56.47 0-103.76-8.3-141.89-24.74-38.28-16.44-68.11-41.19-89.8-74.37-21.83-33.03-33.18-70.43-34.34-112.2zm599.87-337.05v-87.32h76.85v87.32h-76.85zm0 537.87v-453.17h76.85v453.17h-76.85zm193.99 0v-453.17h68.98v64.32c33.18-49.34 81.2-73.94 143.93-73.94 27.36 0 52.39 4.96 75.24 14.7 22.85 9.75 40.03 22.71 51.37 38.57 11.35 15.86 19.36 34.78 23.87 56.61 2.77 14.26 4.23 39.15 4.23 74.66v278.25h-76.85v-275.34c0-31.28-2.91-54.72-8.87-70.14-5.97-15.43-16.59-27.79-31.72-37.11-15.13-9.17-33.04-13.83-53.41-13.83-32.6 0-60.69 10.33-84.41 31.14-23.72 20.67-35.5 60.11-35.5 118.03v247.25h-76.85zm781.65-165.91 75.09 10.48c-8.3 51.66-29.25 91.97-63.15 121.22-33.91 29.25-75.68 43.8-125.01 43.8-61.86 0-111.64-20.23-149.18-60.69-37.69-40.46-56.46-98.37-56.46-173.76 0-48.9 8.15-91.54 24.3-128.21 16.16-36.53 40.76-64.03 73.93-82.22 33.04-18.34 68.99-27.51 108-27.51 49.04 0 89.35 12.37 120.49 37.26 31.29 24.89 51.38 60.25 60.11 105.95l-74.22 11.34c-7.13-30.41-19.65-53.26-37.84-68.68-18.04-15.28-39.88-23-65.48-23-38.72 0-70.16 13.82-94.47 41.48-24.16 27.79-36.23 71.45-36.23 131.41 0 60.83 11.64 104.92 34.92 132.42 23.44 27.5 53.86 41.34 91.26 41.34 30.27 0 55.45-9.17 75.53-27.65 20.23-18.34 33.04-46.71 38.43-84.99zm449.67 19.21 79.46 10.48c-12.37 46.13-35.51 82.07-69.28 107.54-33.76 25.48-76.84 38.28-129.37 38.28-66.07 0-118.46-20.38-157.18-61.13-38.71-40.6-58.06-97.79-58.06-171.28 0-75.97 19.5-135.05 58.65-176.97 39.15-42.06 89.94-63.01 152.36-63.01 60.4 0 109.73 20.53 148.01 61.7 38.28 41.19 57.49 99.11 57.49 173.76 0 4.52-.15 11.35-.44 20.38h-337.48c2.91 49.62 16.88 87.75 42.2 114.09 25.18 26.34 56.76 39.59 94.46 39.59 28.08 0 52.09-7.43 71.89-22.27 19.94-14.84 35.65-38.57 47.29-71.17zm-251.48-123.11h252.36c-3.35-38.13-13.1-66.65-28.96-85.72-24.31-29.54-56.03-44.38-94.89-44.38-35.22 0-64.76 11.78-88.77 35.36-23.87 23.58-37.11 55.16-39.74 94.75zm1052.18 196.46v73.35h-413.88c-.59-18.48 2.47-36.24 9.01-53.41 10.62-28.08 27.65-55.88 51.08-83.09 23.44-27.21 56.91-58.66 100.42-94.31 67.67-55.74 113.66-99.83 137.66-132.43 24.17-32.59 36.24-63.44 36.24-92.56 0-30.41-10.91-56.03-32.74-76.98-21.83-20.82-50.35-31.29-85.42-31.29-37.12 0-66.8 11.06-89.07 33.18-22.27 21.98-33.47 52.53-33.76 91.68l-78.59-7.86c5.39-58.8 25.76-103.61 60.98-134.46 35.36-30.85 82.66-46.28 142.18-46.28 59.96 0 107.55 16.59 142.48 49.92 35.07 33.32 52.53 74.65 52.53 123.84 0 25.04-5.09 49.63-15.42 73.79-10.19 24.3-27.21 49.77-50.94 76.55-23.87 26.63-63.3 63.45-118.31 110.02-46.13 38.71-75.82 64.9-88.92 78.74-13.09 13.82-23.87 27.64-32.45 41.62h306.92zm83.09-235.18c0-73.78 7.58-133.44 22.71-178.56 15.28-45.26 37.84-80.04 67.82-104.35 29.83-24.3 67.53-36.38 112.94-36.38 33.47 0 62.86 6.7 88.34 20.23 25.32 13.53 46.27 33.04 62.57 58.51 16.3 25.32 29.1 56.32 38.42 92.85 9.45 36.53 14.11 85.86 14.11 147.71 0 73.35-7.57 132.72-22.56 177.84-14.98 45.26-37.54 80.04-67.52 104.49-29.83 24.45-67.67 36.67-113.37 36.67-60.11 0-107.4-21.39-141.76-64.32-41.18-52.39-61.7-137.23-61.7-254.67zm78.59.29c0 102.89 11.94 171.29 35.96 205.05 24.02 33.91 53.7 50.79 88.92 50.79s64.9-17.03 88.92-50.93c24.01-34.06 35.94-102.31 35.94-204.91 0-102.88-11.93-171.28-35.94-205.04-23.87-33.91-53.85-50.79-89.79-50.79-35.22 0-63.45 14.99-84.55 44.82-26.34 37.98-39.46 108.42-39.46 211.01zm407.06-.29c0-73.78 7.58-133.44 22.71-178.56 15.28-45.26 37.84-80.04 67.81-104.35 29.83-24.3 67.53-36.38 112.94-36.38 33.47 0 62.86 6.7 88.34 20.23 25.32 13.53 46.27 33.04 62.57 58.51 16.3 25.32 29.1 56.32 38.42 92.85 9.45 36.53 14.11 85.86 14.11 147.71 0 73.35-7.57 132.72-22.56 177.84-14.98 45.26-37.54 80.04-67.52 104.49-29.83 24.45-67.67 36.67-113.37 36.67-60.11 0-107.4-21.39-141.75-64.32-41.18-52.39-61.7-137.23-61.7-254.67zm78.59.29c0 102.89 11.93 171.29 35.95 205.05 24.02 33.91 53.7 50.79 88.92 50.79s64.9-17.03 88.92-50.93c24.01-34.06 35.94-102.31 35.94-204.91 0-102.88-11.93-171.28-35.94-205.04-23.87-33.91-53.85-50.79-89.79-50.79-35.22 0-63.45 14.99-84.55 44.82-26.34 37.98-39.45 108.42-39.45 211.01zm809.59 234.89v73.35h-413.88c-.59-18.48 2.47-36.24 9.01-53.41 10.62-28.08 27.65-55.88 51.08-83.09 23.44-27.21 56.91-58.66 100.42-94.31 67.67-55.74 113.66-99.83 137.66-132.43 24.17-32.59 36.24-63.44 36.24-92.56 0-30.41-10.91-56.03-32.74-76.98-21.83-20.82-50.35-31.29-85.42-31.29-37.12 0-66.8 11.06-89.07 33.18-22.27 21.98-33.47 52.53-33.76 91.68l-78.59-7.86c5.39-58.8 25.76-103.61 60.98-134.46 35.36-30.85 82.66-46.28 142.18-46.28 59.96 0 107.55 16.59 142.48 49.92 35.07 33.32 52.53 74.65 52.53 123.84 0 25.04-5.09 49.63-15.42 73.79-10.19 24.3-27.21 49.77-50.94 76.55-23.87 26.63-63.3 63.45-118.31 110.02-46.13 38.71-75.82 64.9-88.92 78.74-13.09 13.82-23.87 27.64-32.45 41.62h306.92z" fill="#2b2a29" fill-rule="nonzero" data-color="1"/>
        <path d="M1402.65 4945.68c-405.69-971.7-793.07-1990.81-71.78-2922.64 428.41-553.46 1033.12-655.01 1613.8-105.35 724.77 686.04 1716.62 1588.81 2784.75 1336.06 0 0-152.76 2.59-469.09-161.6-960.86 55.2-1844.36-750.78-2505.58-1376.68-622.48-589.19-1287.13-459.36-1716.12 206.65-627.78 974.96-131.56 2194.2 282.6 3159.85l81.42-136.28z" fill="#ecf0c6" data-color="4"/>
        <path d="M3771.23 1684.19s839.29 198.58 1850.18-397.2c866.22-510.51 1805.63-861.41 2308.79-304.01 187.77 208.13 268.26 508.26 307.13 800.5 173.96 1306.07-328.18 2782.19-569.8 3296.89H7021.2c377.78-834.46 681.97-2103.46 567.21-3032.65-25.41-205.54-74.42-406.09-160.79-559.42-185.8-329.9-544.98-390.24-1329.38-2.74-1166.83 576.33-2352.82 320.88-2327.01 198.63z" fill="#78b833" data-color="2"/>
        <path d="M7270.02 1467.41c-217.83-54.57-529.86 49.52-1003.65 273.31-1030.19 486.64-2069.77 298.01-2293.03 171.25 406.72 94.58 1256.62 122 2104.87-285.82 622.1-298.97 978.83-323.81 1191.81-158.75z" fill="#ecf0c6" data-color="4"/>
        <path d="M7909.65 766.19c115.74 45.87 218.03 118.79 310.8 216.79 839.48 886.14 243.78 3180.06-138.9 4097.39h-231c374.55-923.38 964.43-3326.38 203.77-4183.9-44.89-50.58-93.27-93.77-144.68-130.28z" fill="#ecf0c6" data-color="4"/>
        <path d="M2964.26 8311.36c-23.46-34.97 157.01 275.43-74.03-118.74-458.13-781.24-887.91-1909.83-1268.24-2754.38l-86.17 140.69c363.53 813.48 981.81 2099.76 1164.54 2411.46 232.17 396.09 194.52 287.25 263.9 320.97z" fill="#fcd5a6" data-color="5"/>
        <path d="M1149.81 6190.23c214.55 427.18 429.05 824.57 668.12 1298.58 195.41 387.21 471.74 889.37 734.27 1240.79 188.54 252.53 433.79 617.3 706.95 245.51 198.78-270.49 363.77-791.81 455.87-982.99 194.67-404.27-473.01 430.63-557.51 534.67-159.18 195.84-324.41 6.44-583.52-467.28-211.81-355.94-545.04-1068.11-812.46-1661.49l-307.62-713.94-304.1 506.15z" fill="#ec691f" data-color="3"/>
        <path d="M913.19 4396.4c-75.94-177.25-143.95-362.76-198.69-552.16-214.25-741.52-226.1-1544.19 279.22-2156.11 426.95-516.9 1028.47-576.22 1594.95-40.06 724.78 686.04 1716.62 1588.81 2784.8 1336 0 0-605.89 10.76-1902.96-1307.32-1097.35-1115.13-2047.79-1384.8-2787.98-687-978.23 922.23-755.37 2451.43-258.75 3578.38 165.98 420.16 346.05 817.32 495.04 1136.41l322.76-537.12c-101.55-244.98-219.83-517.57-328.38-771.01z" fill="#78b833" data-color="2"/>
        <path d="M2990.5 9200.49c120.98 80.98 253.03 83.1 392.37-106.54 198.74-270.49 363.78-791.82 455.88-983 84.65-175.81 6.17-117.2-116.48 13.69-95.38 223.12-248.72 678.83-430.07 925.68-105.26 143.3-206.36 177.06-301.69 150.16z" fill="#fcd5a6" data-color="5"/>
    </g>
</svg>
